<svg xmlns="http://www.w3.org/2000/svg" viewBox="0 0 64 64" id="location"><g fill="none" stroke="#000000" stroke-linecap="round" stroke-linejoin="round" stroke-width="2" data-name="Target Location" class="colorStroke000000 svgStroke"><path d="M56.38 52H3.11l7.78-30h1.57M31.61 22h21.5l7.78 30" fill="#ffffff" class="color000000 svgShape"></path><path d="m55.18 29.99-5.04 1.63h-.01M46.39 32.83l-16.42 5.3-3.76 1.21-21.62 6.98h-.01M30.26 42.71l-17.69 5.71M34 41.5l16.43-5.3 2.62-.85M37.55 48.79l-7.29-6.08M46.6 52 34 41.5" fill="#ffffff" class="color000000 svgShape"></path><path d="M50.14 31.62h-.01l-7.78-6.49M46.39 32.83 33.4 22" fill="#ffffff" class="color000000 svgShape"></path><circle cx="22" cy="18.67" r="6.67" fill="#ffffff" class="color000000 svgShape"></circle><path d="M22.69 15.06a3.7 3.7 0 0 1 2.65 2.09M22 25.33v7.78" fill="#ffffff" class="color000000 svgShape"></path></g></svg>